<?xml version="1.0" standalone="no"?>
<!DOCTYPE svg PUBLIC "-//W3C//DTD SVG 20010904//EN"
 "http://www.w3.org/TR/2001/REC-SVG-20010904/DTD/svg10.dtd">
<svg version="1.0" xmlns="http://www.w3.org/2000/svg"
 width="1410.000000pt" height="145.000000pt" viewBox="0 0 1410.000000 145.000000"
 preserveAspectRatio="xMidYMid meet">

<g transform="translate(0.000000,145.000000) scale(0.100000,-0.100000)"
fill="#ffffff" stroke="none">
<path d="M356 1335 c-68 -24 -136 -109 -136 -169 0 -19 -9 -30 -32 -42 -110
-55 -145 -162 -88 -261 l19 -33 -30 -22 c-53 -39 -84 -104 -83 -173 0 -35 8
-73 17 -91 23 -45 94 -102 136 -111 20 -5 146 -8 281 -8 232 0 247 1 285 22
76 41 115 105 115 190 -1 62 -27 120 -74 161 l-37 33 20 42 c24 50 27 113 7
161 -14 35 -65 79 -103 91 -16 4 -23 14 -23 31 0 73 -68 157 -144 179 -60 18
-80 18 -130 0z"/>
<path d="M716 1336 c-54 -20 -61 -29 -43 -57 8 -13 20 -40 27 -59 7 -22 27
-46 53 -65 79 -57 118 -181 86 -273 -10 -28 -8 -35 20 -69 55 -69 75 -167 51
-255 -6 -20 -27 -60 -46 -89 l-36 -52 103 6 c121 6 144 13 199 63 47 43 76
123 65 182 -9 50 -49 116 -85 142 l-29 21 19 32 c56 96 19 216 -80 257 -22 9
-31 22 -40 58 -16 67 -45 108 -94 137 -54 32 -119 40 -170 21z"/>
<path d="M10957 1169 c-83 -19 -176 -87 -223 -161 -86 -136 -94 -352 -19 -505
82 -167 261 -245 456 -199 131 30 242 139 264 259 l7 37 -89 0 -89 0 -12 -33
c-34 -94 -160 -143 -260 -101 -94 39 -142 130 -142 269 0 180 82 285 223 285
80 0 135 -33 167 -98 l25 -51 88 0 c98 -1 97 -2 71 76 -36 106 -114 179 -226
215 -64 19 -175 23 -241 7z"/>
<path d="M1880 736 l0 -436 90 0 90 0 0 155 0 155 69 0 69 0 82 -155 82 -155
99 0 100 0 -16 30 c-9 17 -50 93 -91 168 l-75 137 23 15 c108 68 153 202 113
336 -20 67 -64 117 -133 151 -57 28 -59 28 -279 31 l-223 4 0 -436z m395 270
c42 -18 65 -61 65 -123 0 -93 -44 -123 -185 -123 l-95 0 0 130 0 130 90 0 c56
0 104 -5 125 -14z"/>
<path d="M4530 1010 c0 -88 -3 -160 -7 -160 -5 0 -17 13 -27 28 -69 104 -237
109 -335 11 -62 -62 -85 -132 -85 -259 -1 -124 17 -186 70 -249 96 -111 240
-120 337 -20 l47 49 0 -55 0 -55 85 0 85 0 0 435 0 435 -85 0 -85 0 0 -160z
m-73 -210 c42 -25 65 -71 70 -145 7 -78 -10 -138 -51 -182 -28 -31 -39 -36
-79 -37 -90 -2 -142 68 -142 194 0 118 50 189 135 190 19 0 49 -9 67 -20z"/>
<path d="M6700 735 l0 -435 90 0 90 0 0 180 0 180 175 0 175 0 0 75 0 75 -175
0 -175 0 0 105 0 105 195 0 195 0 0 75 0 75 -285 0 -285 0 0 -435z"/>
<path d="M11580 735 l0 -435 90 0 90 0 0 435 0 435 -90 0 -90 0 0 -435z"/>
<path d="M13830 1010 c0 -88 -3 -160 -7 -160 -5 0 -17 13 -27 28 -69 104 -237
109 -335 11 -62 -62 -85 -132 -85 -259 -1 -124 17 -186 70 -249 96 -111 240
-120 337 -20 l47 49 0 -55 0 -55 85 0 85 0 0 435 0 435 -85 0 -85 0 0 -160z
m-73 -210 c42 -25 65 -71 70 -145 7 -78 -10 -138 -51 -182 -28 -31 -39 -36
-79 -37 -90 -2 -142 68 -142 194 0 118 50 189 135 190 19 0 49 -9 67 -20z"/>
<path d="M9978 1033 l-3 -78 -42 -3 -43 -3 0 -65 0 -64 44 0 45 0 3 -209 c3
-228 5 -236 69 -283 45 -33 185 -45 226 -20 8 5 8 24 -1 67 l-12 60 -39 3
c-22 2 -45 8 -52 14 -10 8 -13 57 -13 189 l0 179 60 0 60 0 0 65 0 65 -60 0
-60 0 0 80 0 80 -90 0 -89 0 -3 -77z"/>
<path d="M2814 942 c-28 -10 -63 -26 -78 -35 -28 -18 -70 -78 -80 -113 -6 -19
-1 -22 46 -27 93 -12 116 -9 123 13 13 42 103 64 159 39 29 -14 51 -59 41 -88
-7 -24 -42 -35 -160 -51 -104 -14 -149 -30 -189 -68 -37 -36 -48 -65 -47 -134
0 -67 18 -108 63 -141 93 -69 225 -62 301 14 22 21 41 39 43 39 2 0 4 -20 4
-45 l0 -45 85 0 85 0 0 214 c0 240 -8 304 -46 354 -60 78 -235 115 -350 74z
m216 -389 c0 -29 -7 -60 -19 -79 -55 -90 -214 -78 -214 15 0 55 24 70 163 99
72 15 70 16 70 -35z"/>
<path d="M3647 946 c-44 -16 -72 -39 -95 -78 -24 -41 -32 -34 -32 27 l0 55
-85 0 -85 0 0 -325 0 -325 90 0 90 0 0 200 c0 222 8 263 59 293 44 26 116 22
146 -7 37 -37 45 -87 45 -293 l0 -193 85 0 85 0 0 236 c0 151 -4 251 -12 275
-34 116 -170 178 -291 135z"/>
<path d="M5043 942 c-98 -35 -156 -98 -187 -202 -50 -168 14 -346 149 -415 53
-27 68 -30 154 -30 112 0 163 19 230 86 59 59 85 133 85 244 0 149 -57 251
-170 306 -64 31 -191 36 -261 11z m184 -138 c43 -27 67 -91 67 -179 0 -130
-46 -195 -140 -195 -82 0 -134 76 -134 195 0 156 103 244 207 179z"/>
<path d="M5884 950 c-31 -10 -104 -80 -104 -100 0 -6 -4 -10 -10 -10 -5 0 -10
25 -10 55 l0 55 -85 0 -85 0 0 -325 0 -325 90 0 90 0 0 205 c0 221 6 257 51
289 13 9 42 16 65 16 35 0 47 -5 68 -31 l26 -31 0 -224 0 -224 85 0 85 0 0
198 c0 208 6 251 42 289 32 34 106 33 142 -3 l26 -27 0 -228 0 -229 90 0 90 0
0 243 c0 135 -5 258 -10 279 -40 143 -234 185 -347 76 -18 -18 -33 -38 -33
-46 0 -21 -16 -11 -42 27 -37 55 -71 74 -135 77 -32 2 -72 -1 -89 -6z"/>
<path d="M7523 942 c-98 -35 -156 -98 -187 -202 -50 -168 14 -346 149 -415 53
-27 68 -30 154 -30 112 0 163 19 230 86 59 59 85 133 85 244 0 149 -57 251
-170 306 -64 31 -191 36 -261 11z m184 -138 c43 -27 67 -91 67 -179 0 -130
-46 -195 -140 -195 -82 0 -134 76 -134 195 0 156 103 244 207 179z"/>
<path d="M8355 946 c-34 -15 -55 -37 -78 -81 l-16 -30 -1 58 0 57 -90 0 -90 0
0 -325 0 -325 90 0 90 0 0 198 c0 168 3 202 18 231 28 57 64 76 138 76 l64 0
0 77 0 78 -47 0 c-27 -1 -61 -7 -78 -14z"/>
<path d="M8725 942 c-141 -49 -213 -173 -202 -347 5 -92 27 -152 76 -208 94
-106 308 -128 431 -45 42 29 87 85 95 120 l7 26 -79 4 c-72 3 -79 2 -97 -20
-42 -52 -124 -66 -186 -31 -41 23 -64 57 -73 107 l-6 32 224 0 225 0 0 38 c0
58 -20 152 -40 192 -64 123 -231 182 -375 132z m170 -126 c37 -16 75 -68 75
-103 0 -23 -2 -23 -135 -23 -133 0 -135 0 -135 23 0 34 34 81 71 100 42 21 79
21 124 3z"/>
<path d="M9404 942 c-102 -36 -149 -95 -148 -183 1 -109 64 -161 234 -194 129
-26 167 -54 140 -104 -15 -30 -42 -41 -97 -41 -59 0 -94 17 -111 54 -11 21
-19 27 -35 22 -12 -3 -50 -6 -84 -6 -72 0 -76 -6 -44 -68 38 -74 115 -118 225
-129 193 -18 345 82 333 220 -8 91 -63 136 -205 167 -140 31 -165 41 -176 73
-25 71 113 112 177 53 13 -12 26 -28 28 -35 4 -10 23 -11 82 -6 86 8 89 12 57
74 -39 77 -107 111 -235 117 -70 4 -101 1 -141 -14z"/>
<path d="M12083 942 c-98 -35 -156 -98 -187 -202 -50 -168 14 -346 149 -415
53 -27 68 -30 154 -30 112 0 163 19 230 86 59 59 85 133 85 244 0 149 -57 251
-170 306 -64 31 -191 36 -261 11z m184 -138 c43 -27 67 -91 67 -179 0 -130
-46 -195 -140 -195 -82 0 -134 76 -134 195 0 156 103 244 207 179z"/>
<path d="M12642 713 c5 -250 10 -280 55 -341 79 -106 271 -100 343 12 l25 39
3 -62 3 -61 84 0 85 0 0 325 0 325 -89 0 -90 0 -3 -221 -3 -221 -32 -28 c-60
-54 -132 -48 -177 13 -20 26 -21 44 -24 243 l-3 214 -91 0 -90 0 4 -237z"/>
<path d="M360 295 l0 -75 -70 0 -70 0 0 -35 0 -35 420 0 420 0 0 35 0 35 -70
0 -70 0 0 75 0 76 -67 -3 -68 -3 -3 -72 -3 -73 -139 0 -140 0 0 75 0 75 -70 0
-70 0 0 -75z"/>
</g>
</svg>
